{"title":"The.President.2011.DVDRip.XviD-EXViD","uid":6892950,"size":742257332,"categoryP":"video","categoryS":"movies","magnet":"?xt=urn:btih:81816e180b70836081f02fdd6ffdae592c90e3fc&amp;dn=The.President.2011.DVDRip.XviD-EXViD&amp;tr=udp%3A%2F%2Ftracker.openbittorrent.com%3A80&amp;tr=udp%3A%2F%2Fopen.demonii.com%3A1337&amp;tr=udp%3A%2F%2Ftracker.coppersurfer.tk%3A6969&amp;tr=udp%3A%2F%2Fexodus.desync.com%3A6969","seeders":1,"leechers":1,"uploader":"TvTeam","files":7,"time":1324085441,"description":". \n &lt;a href=&quot;\nhttp://www.torrenting.com&quot; rel=&quot;nofollow&quot; target=&quot;_NEW&quot;&gt;\nhttp://www.torrenting.com&lt;/a&gt;          :     Once &amp; For all ;)\n\n\n               www . Torrenting . Com \n\n(((((((((((((= Enjoy No RAR releases =))))))))))))))))))))\n\n\n...................................NFO:....................................\n\n.                                                                                                     \n       \n     \n     \n       \n       \n     \n     \n                                         \n                                         \n                EXVID                    \n                                         \n         \n                                         \n         Filled the Archives             \n                                         \n         \n                                         \n                With:                    \n                                         \n         \n                                         \n                                    \n     E240                           \n                                    \n     SP               (C) 2009      \n                                         \n     \n     \n     \n                                                                                  \n                                                                                   \n                  The.President.2011.DVDRip.XviD-EXViD                              \n                                                                                   \n                                                                                  \n     \n                                                                                               \nEXViD aims to iNTERNAL those releases which have been lost in the archives.\nEXViD aims to PRE non-internal releases which have poor sources and are likely skipped by others. &lt;a href=&quot;\nhttp://www.imdb.com/title/tt1727782/&quot; rel=&quot;nofollow&quot; target=&quot;_NEW&quot;&gt;\nhttp://www.imdb.com/title/tt1727782/&lt;/a&gt;\nSubtitles: NL FD, EN\nDate: 2011.12\n\nDirector: Erik de Bruyn\n\nGenres: Comedy\n\nPlot:\nA political comedy about an illegal Morrocan who makes it to President of the Netherlands.\nAs we follow his unlikely rise and selfsought fall, Joes learns that it's easy to win the support\nof the people, but to rule them is a whole other story.\n\nCast:\nAchmed Akkabi \t ... \t Joes \nNajib Amhali \t ... \t Hamid \nCharlie Dagelet \t ... \t Mila \nDirk Zeelenberg \t ... \t Vlonder \nRosa Reuten \t ... \t Treesters \nTon Kas \t ... \t Aart \nFrank Lammers \t ... \t Boyko \nMatthias Schoenaerts \t ... \t Krasimir \nPeer Mascini \t ... \t Butler \nRuben van der Meer \t ... \t Presentator \nErik de Bruyn \t ... \t Gunman \nRolf Dekens \t ... \t TV cameraman \nDavid Higginson \t ... \t Night club visitor \nDirk-Jan Kerkkamp \t ... \t Journalist \nBob Wilbers \t ... \t Journalist\n\nStats:\nFormat                           : AVI\nFormat/Info                      : Audio Video Interleave\nFile size                        : 700 MiB\nDuration                         : 1h 29mn\nOverall bit rate                 : 1 089 Kbps\nWriting application              : VirtualDubMod 1.5.10.2 (build 2540/release)\nWriting library                  : VirtualDubMod build 2540/release\n\nVideo\nID                               : 0\nFormat                           : MPEG-4 Visual\nFormat profile                   : Advanced Simple@L5\nFormat settings, BVOP            : Yes\nFormat settings, QPel            : No\nFormat settings, GMC             : No warppoints\nFormat settings, Matrix          : Default (H.263)\nMuxing mode                      : Packed bitstream\nCodec ID                         : XVID\nCodec ID/Hint                    : XviD\nDuration                         : 1h 29mn\nBit rate                         : 955 Kbps\nWidth                            : 640 pixels\nHeight                           : 272 pixels\nDisplay aspect ratio             : 2.35:1\nFrame rate                       : 25.000 fps\nColor space                      : YUV\nChroma subsampling               : 4:2:0\nBit depth                        : 8 bits\nScan type                        : Progressive\nBits/(Pixel*Frame)               : 0.219\nStream size                      : 613 MiB (88%)\nWriting library                  : XviD 62\n\nAudio\nID                               : 1\nFormat                           : MPEG Audio\nFormat version                   : Version 1\nFormat profile                   : Layer 3\nMode                             : Joint stereo\nMode extension                   : MS Stereo\nCodec ID                         : 55\nCodec ID/Hint                    : MP3\nDuration                         : 1h 29mn\nBit rate mode                    : Variable\nBit rate                         : 121 Kbps\nNominal bit rate                 : 128 Kbps\nChannel(s)                       : 2 channels\nSampling rate                    : 48.0 KHz\nStream size                      : 77.8 MiB (11%)\nAlignment                        : Aligned on interleaves\nInterleave, duration             : 24 ms (0.60 video frame)\nInterleave, preload duration     : 507 ms\nWriting library                  : LAME3.98r\nEncoding settings                : -m j -V 4 -q 2 -lowpass 17 --abr 128\n\n\n\n\nRelease notes:\nenjoy!\n\nLooking for:\n75TB+ Archives\nDUTCH/FLEMiSH Archives\n                                                                                                    \nGreets: CRBS EPiSODE FiCO FLS iLS KLASSiGER LiPSYNC MADE NODLABS RUNNER SPRiNTER      \n   \n\n                                                                    ASCII DONE BY XX^NFO 2oo9","torrent":{"xt":"urn:btih:81816e180b70836081f02fdd6ffdae592c90e3fc","amp;dn":"The.President.2011.DVDRip.XviD-EXViD","amp;tr":["udp%3A%2F%2Ftracker.openbittorrent.com%3A80","udp%3A%2F%2Fopen.demonii.com%3A1337","udp%3A%2F%2Ftracker.coppersurfer.tk%3A6969","udp%3A%2F%2Fexodus.desync.com%3A6969"],"infoHash":"81816e180b70836081f02fdd6ffdae592c90e3fc","infoHashBuffer":{"type":"Buffer","data":[129,129,110,24,11,112,131,96,129,240,47,221,111,253,174,89,44,144,227,252]},"announce":[],"urlList":[]}}